HIERARCHY
ROOT Hips
{
	OFFSET	0.00	0.00	0.00
	CHANNELS 6 Xposition Yposition Zposition Zrotation Xrotation Yrotation
	JOINT LeftUpLeg
	{
		OFFSET	 0.126116	-0.065224	 0.014019
		CHANNELS 3 Zrotation Xrotation Yrotation
		JOINT LeftLeg
		{
			OFFSET	 0.000000	 0.569914	 0.000000
			CHANNELS 3 Zrotation Xrotation Yrotation
			JOINT LeftFoot
			{
				OFFSET	 0.000000	 0.544423	 0.000000
				CHANNELS 3 Zrotation Xrotation Yrotation
				JOINT LeftToeBase
				{
					OFFSET	 0.000000	 0.207117	 0.000000
					CHANNELS 3 Zrotation Xrotation Yrotation
					End Site
					{
						OFFSET	 0.000000	 0.207117	 0.000000
					}
				}
			}
		}
	}
	JOINT RightUpLeg
	{
		OFFSET	-0.124023	-0.065224	 0.008373
		CHANNELS 3 Zrotation Xrotation Yrotation
		JOINT RightLeg
		{
			OFFSET	 0.000000	 0.570047	 0.000000
			CHANNELS 3 Zrotation Xrotation Yrotation
			JOINT RightFoot
			{
				OFFSET	 0.000000	 0.544354	 0.000000
				CHANNELS 3 Zrotation Xrotation Yrotation
				JOINT RightToeBase
				{
					OFFSET	 0.000000	 0.207540	 0.000000
					CHANNELS 3 Zrotation Xrotation Yrotation
					End Site
					{
						OFFSET	 0.000000	 0.207540	 0.000000
					}
				}
			}
		}
	}
	JOINT Spine
	{
		OFFSET	 0.000184	 0.117403	 0.007763
		CHANNELS 3 Zrotation Xrotation Yrotation
		JOINT Spine1
		{
			OFFSET	 0.000000	 0.137269	 0.000000
			CHANNELS 3 Zrotation Xrotation Yrotation
			JOINT Spine2
			{
				OFFSET	 0.000000	 0.156879	 0.000000
				CHANNELS 3 Zrotation Xrotation Yrotation
				JOINT LeftShoulder
				{
					OFFSET	 0.080501	 0.160143	 0.002496
					CHANNELS 3 Zrotation Xrotation Yrotation
					JOINT LeftArm
					{
						OFFSET	 0.000000	 0.164363	 0.000000
						CHANNELS 3 Zrotation Xrotation Yrotation
						JOINT LeftForeArm
						{
							OFFSET	 0.000000	 0.364576	 0.000000
							CHANNELS 3 Zrotation Xrotation Yrotation
							JOINT LeftHand
							{
								OFFSET	 0.000000	 0.360812	 0.000000
								CHANNELS 3 Zrotation Xrotation Yrotation
								JOINT LeftHandIndex1
								{
									OFFSET	 0.000000	 0.086006	 0.000000
									CHANNELS 3 Zrotation Xrotation Yrotation
									JOINT LeftHandIndex2
									{
										OFFSET	 0.000000	 0.047237	 0.000000
										CHANNELS 3 Zrotation Xrotation Yrotation
										JOINT LeftHandIndex3
										{
											OFFSET	-0.004284	 0.038165	 0.000551
											CHANNELS 3 Zrotation Xrotation Yrotation
											End Site
											{
												OFFSET	-0.004284	 0.038165	 0.000551
											}
										}
									}
								}
							}
						}
					}
				}
				JOINT Neck
				{
					OFFSET	 0.000000	 0.176489	 0.000000
					CHANNELS 3 Zrotation Xrotation Yrotation
					JOINT Head
					{
						OFFSET	 0.000000	 0.077941	 0.001747
						CHANNELS 3 Zrotation Xrotation Yrotation
						End Site
						{
							OFFSET	 0.000000	 0.077941	 0.001747
						}
					}
				}
				JOINT RightShoulder
				{
					OFFSET	-0.080363	 0.159706	-0.000306
					CHANNELS 3 Zrotation Xrotation Yrotation
					JOINT RightArm
					{
						OFFSET	 0.000000	 0.164196	 0.000000
						CHANNELS 3 Zrotation Xrotation Yrotation
						JOINT RightForeArm
						{
							OFFSET	 0.000000	 0.365611	 0.000000
							CHANNELS 3 Zrotation Xrotation Yrotation
							JOINT RightHand
							{
								OFFSET	 0.000000	 0.360648	 0.000000
								CHANNELS 3 Zrotation Xrotation Yrotation
								JOINT RightHandIndex1
								{
									OFFSET	 0.000000	 0.069977	 0.000000
									CHANNELS 3 Zrotation Xrotation Yrotation
									JOINT RightHandIndex2
									{
										OFFSET	 0.000000	 0.052305	 0.000000
										CHANNELS 3 Zrotation Xrotation Yrotation
										JOINT RightHandIndex3
										{
											OFFSET	 0.009002	 0.042196	 0.000782
											CHANNELS 3 Zrotation Xrotation Yrotation
											End Site
											{
												OFFSET	 0.009002	 0.042196	 0.000782
											}
										}
									}
								}
							}
						}
					}
				}
			}
		}
	}
}
MOTION
Frames:    11
Frame Time: 0.03333334
 0.436158	 1.272933	 0.397132	 0.571994	-2.422412	-177.243400	-179.156800	 7.194080	-12.511150	 3.703556	-13.666120	 6.045944	 5.542494	 70.314440	-1.801175	 1.292262	 28.425850	-2.713146	 176.623800	 7.676423	 14.162320	-2.249508	-11.541910	 0.787631	 0.771320	 67.161110	-5.808950	-1.288183	 28.361890	 2.710176	 0.773966	 6.529537	 4.943326	-1.586942	-6.672990	 2.402633	 1.973787	 7.722487	-8.191751	-117.524600	-0.799840	 89.949560	 34.025060	 2.881684	-6.548936	 4.337706	-0.309574	 34.356600	 1.129271	-16.670160	 5.204797	-6.580301	 5.266122	 0.000000	 0.000000	 0.000000	 0.000000	 0.000000	 0.000000	 0.000000	 4.840468	 27.259150	 1.675349	-4.159962	-16.636270	-2.025381	 116.390700	-0.468664	-90.559310	-11.843450	-3.777772	 21.714720	-5.129804	 0.178334	-56.883130	 10.438760	-10.276370	 19.380740	 15.208500	 5.323790	 0.000000	 0.000000	 0.000000	 0.000000	 0.000000	 0.000000	 0.000000
 0.435516	 1.271385	 0.383707	 0.583900	-2.538111	-177.232100	-179.059500	 7.765860	-13.363620	 4.029376	-14.815660	 6.154312	 5.838525	 71.026120	-2.138638	 1.292262	 28.425850	-2.713146	 176.493400	 7.716153	 15.048210	-2.502523	-12.798650	 0.693074	 0.926206	 68.449540	-5.758932	-1.288183	 28.361890	 2.710176	 0.832792	 6.602050	 4.478345	-1.595877	-6.902466	 2.401188	 1.992545	 7.990529	-8.213179	-117.646700	-0.837065	 89.932880	 34.258950	 2.818849	-6.217854	 4.440130	-0.238283	 33.683360	 1.513390	-16.567540	 4.969759	-6.580301	 5.266122	 0.000000	 0.000000	 0.000000	 0.000000	 0.000000	 0.000000	 0.000000	 4.925870	 27.526480	 1.604373	-4.172320	-16.772420	-2.016054	 116.583400	-0.521789	-90.540880	-11.994930	-3.816624	 21.638530	-5.195241	 0.284376	-56.298490	 10.170170	-10.406120	 19.458570	 15.208500	 5.323790	 0.000000	 0.000000	 0.000000	 0.000000	 0.000000	 0.000000	 0.000000
 0.434867	 1.269744	 0.370476	 0.598684	-2.685213	-177.217700	-178.942800	 8.372155	-14.213340	 4.355354	-15.953300	 6.276516	 6.195119	 71.720090	-2.525806	 1.292262	 28.425850	-2.713146	 176.351700	 7.709590	 15.936240	-2.724008	-13.888330	 0.589740	 1.041587	 69.643000	-5.681490	-1.288183	 28.361890	 2.710176	 0.907785	 6.607541	 3.887446	-1.593363	-7.014722	 2.403529	 2.006368	 8.248162	-8.238375	-117.802100	-0.884359	 89.911550	 34.611030	 2.791048	-5.809501	 4.573638	-0.149582	 32.833910	 1.928249	-16.453840	 4.661585	-6.580301	 5.266122	 0.000000	 0.000000	 0.000000	 0.000000	 0.000000	 0.000000	 0.000000	 5.035322	 27.866310	 1.513207	-4.188036	-16.945540	-2.004073	 116.828400	-0.589283	-90.517140	-12.214140	-3.806233	 21.529590	-5.283936	 0.418367	-55.565880	 9.887560	-10.595230	 19.592470	 15.208500	 5.323790	 0.000000	 0.000000	 0.000000	 0.000000	 0.000000	 0.000000	 0.000000
 0.429121	 1.250060	 0.279391	 0.881898	-4.795393	-176.989900	-177.271700	 15.194420	-20.623720	 7.555515	-26.332910	 7.945301	 12.854100	 77.412340	-9.020215	 1.292262	 28.425850	-2.713146	 174.832200	 8.693377	 22.756770	-4.399956	-21.759210	-0.648689	 0.255819	 78.120060	-3.531530	-1.288183	 28.361890	 2.710176	 2.291443	 7.760342	-4.603837	-1.571411	-8.893170	 2.450871	 2.225806	 12.110880	-8.623280	-120.063500	-1.565312	 89.587070	 43.387170	 5.481064	-1.044252	 6.645878	 0.938180	 21.201480	 3.117093	-15.442230	-1.255399	-6.580301	 5.266122	 0.000000	 0.000000	 0.000000	 0.000000	 0.000000	 0.000000	 0.000000	 6.746421	 32.794640	 0.061274	-4.417130	-19.459890	-1.816883	 120.396700	-1.558849	-90.139480	-8.819407	 3.095460	 19.137480	-25.019600	 2.702146	-45.924760	 15.048290	-7.895974	 22.932700	 15.208500	 5.323790	 0.000000	 0.000000	 0.000000	 0.000000	 0.000000	 0.000000	 0.000000
 0.428364	 1.246612	 0.270151	 0.934033	-5.152577	-176.948100	-176.972900	 16.260960	-21.369530	 8.044061	-27.777840	 8.252257	 14.468160	 78.124820	-10.547190	 1.292262	 28.425850	-2.713146	 174.579600	 9.049932	 23.560400	-4.650952	-22.873220	-0.861023	-0.202397	 79.159770	-2.929838	-1.288183	 28.361890	 2.710176	 2.565670	 7.941735	-6.007731	-1.540287	-8.989747	 2.469877	 2.247033	 12.664530	-8.688566	-120.447900	-1.679607	 89.529320	 45.213200	 6.126300	-0.402704	 7.006688	 1.089223	 19.340790	 2.865224	-15.202960	-2.533986	-6.580301	 5.266122	 0.000000	 0.000000	 0.000000	 0.000000	 0.000000	 0.000000	 0.000000	 7.061295	 33.627640	-0.210816	-4.456094	-19.885910	-1.782742	 121.003300	-1.721040	-90.069390	-8.824611	 4.411601	 18.552070	-27.660530	 3.057124	-44.453510	 16.129570	-7.832517	 23.812090	 15.208500	 5.323790	 0.000000	 0.000000	 0.000000	 0.000000	 0.000000	 0.000000	 0.000000
 0.427494	 1.242340	 0.259915	 0.997489	-5.588027	-176.896700	-176.604200	 17.536240	-22.223760	 8.634292	-29.471350	 8.637733	 16.697250	 78.935980	-12.651840	 1.292262	 28.425850	-2.713146	 174.266400	 9.521431	 24.481630	-4.957106	-24.207100	-1.123719	-0.935571	 80.367690	-2.042581	-1.288183	 28.361890	 2.710176	 2.911526	 8.154777	-7.696291	-1.492514	-9.071841	 2.496577	 2.268086	 13.323070	-8.768780	-120.916400	-1.818363	 89.457920	 47.426860	 6.845463	 0.341954	 7.448223	 1.261356	 17.111150	 2.552763	-14.813830	-4.203688	-6.580301	 5.266122	 0.000000	 0.000000	 0.000000	 0.000000	 0.000000	 0.000000	 0.000000	 7.455694	 34.640950	-0.553527	-4.503605	-20.404640	-1.740285	 121.742800	-1.917663	-89.981640	-9.260584	 5.837623	 17.875310	-30.061440	 3.467483	-42.721860	 17.206000	-7.980949	 24.998380	 15.208500	 5.323790	 0.000000	 0.000000	 0.000000	 0.000000	 0.000000	 0.000000	 0.000000
 0.426638	 1.237730	 0.249975	 1.063802	-6.052622	-176.841900	-176.208900	 18.861250	-23.080310	 9.256367	-31.194270	 9.060472	 19.424110	 79.732390	-15.225220	 1.292262	 28.425850	-2.713146	 173.926700	 10.055100	 25.418680	-5.289561	-25.594210	-1.423209	-1.989312	 81.591810	-0.848183	-1.288183	 28.361890	 2.710176	 3.290168	 8.368947	-9.461071	-1.430962	-9.142553	 2.528643	 2.285741	 14.015670	-8.855274	-121.414900	-1.965290	 89.380710	 49.689270	 7.467163	 1.111897	 7.919025	 1.430499	 14.783050	 2.300519	-14.251250	-6.115596	-6.580301	 5.266122	 0.000000	 0.000000	 0.000000	 0.000000	 0.000000	 0.000000	 0.000000	 7.888636	 35.716120	-0.932036	-4.554147	-20.955770	-1.694064	 122.529600	-2.125482	-89.885540	-10.118830	 7.096585	 17.259170	-31.815690	 3.882654	-40.949190	 18.023950	-8.267482	 26.365240	 15.208500	 5.323790	 0.000000	 0.000000	 0.000000	 0.000000	 0.000000	 0.000000	 0.000000
 0.425867	 1.233125	 0.240856	 1.126921	-6.513244	-176.788700	-175.810500	 20.135090	-23.910100	 9.865958	-32.821130	 9.490209	 22.415000	 80.463020	-18.035560	 1.292262	 28.425850	-2.713146	 173.586300	 10.603210	 26.261890	-5.604087	-26.933660	-1.692103	-3.463987	 82.746940	 0.745566	-1.288183	 28.361890	 2.710176	 3.671874	 8.566576	-11.168940	-1.360616	-9.226543	 2.563612	 2.299802	 14.706920	-8.942539	-121.907800	-2.109815	 89.303180	 51.746810	 7.877008	 1.878956	 8.386796	 1.584003	 12.523400	 2.221669	-13.514040	-8.144950	-6.580301	 5.266122	 0.000000	 0.000000	 0.000000	 0.000000	 0.000000	 0.000000	 0.000000	 8.330867	 36.775790	-1.321010	-4.604116	-21.499800	-1.647345	 123.307500	-2.329515	-89.787780	-11.216060	 8.030811	 16.801380	-32.959670	 4.277301	-39.261350	 18.468180	-8.526823	 27.783630	 15.208500	 5.323790	 0.000000	 0.000000	 0.000000	 0.000000	 0.000000	 0.000000	 0.000000
 0.425099	 1.227909	 0.231163	 1.193488	-7.034719	-176.730200	-175.371800	 21.526740	-24.778620	 10.546220	-34.565360	 9.986990	 26.444980	 81.197920	-21.848210	 1.292262	 28.425850	-2.713146	 173.194000	 11.231530	 27.190480	-5.963939	-28.394550	-2.016578	-5.739818	 83.988880	 3.128087	-1.288183	 28.361890	 2.710176	 4.105781	 8.770660	-13.044390	-1.272524	-9.378647	 2.604980	 2.313711	 15.511670	-9.043668	-122.463100	-2.271735	 89.214360	 53.744580	 8.030136	 2.789363	 8.919284	 1.740729	 10.025220	 2.442132	-12.435170	-10.602400	-6.580301	 5.266122	 0.000000	 0.000000	 0.000000	 0.000000	 0.000000	 0.000000	 0.000000	 8.846920	 37.965230	-1.777720	-4.660387	-22.111520	-1.593540	 124.183800	-2.557586	-89.674410	-12.529010	 8.654367	 16.493980	-33.862410	 4.710264	-37.428300	 18.509100	-8.593596	 29.406690	 15.208500	 5.323790	 0.000000	 0.000000	 0.000000	 0.000000	 0.000000	 0.000000	 0.000000
 0.424790	 1.164680	 0.275124	 1.588827	-16.876910	-174.560800	-174.511200	 43.696570	-25.074050	 18.814480	-50.520500	 20.414000	 80.073630	 78.481920	-71.710950	 1.292262	 28.425850	-2.713146	 166.385000	 32.775890	 34.156280	-12.852790	-49.171100	-9.164540	-122.555900	 83.396100	 116.920000	-1.288183	 28.361890	 2.710176	 7.341793	 8.187684	-27.947440	-0.202555	-4.215084	 2.855560	 1.551998	 14.356230	-10.162580	-122.818900	 7.196970	 94.069970	 60.094030	 12.692580	-1.031443	 13.974760	 3.262861	-7.936933	 11.656850	-15.114100	-32.740950	-6.580301	 5.266122	 0.000000	 0.000000	 0.000000	 0.000000	 0.000000	 0.000000	 0.000000	 8.542262	 35.791620	-2.855522	-3.858701	-25.049620	-2.105567	 125.531400	 6.160512	-94.409300	-12.640660	 21.734730	 10.018820	-55.013620	 7.990240	-13.799540	 24.329390	-19.639270	 48.741600	 15.208500	 5.323790	 0.000000	 0.000000	 0.000000	 0.000000	 0.000000	 0.000000	 0.000000
 0.425320	 1.154228	 0.288503	 1.765905	-18.528850	-173.955700	-174.754900	 47.265020	-24.258720	 20.238530	-52.477280	 22.286840	 82.682630	 77.361950	-73.771460	 1.292262	 28.425850	-2.713146	 165.011400	 36.287410	 35.419980	-14.177040	-51.876000	-10.363020	-126.195700	 82.289280	 119.975700	-1.288183	 28.361890	 2.710176	 7.601570	 7.973976	-29.292470	 0.229341	-1.982897	 2.840963	 1.361461	 13.258140	-10.264950	-122.479900	 8.433537	 94.670550	 61.313550	 13.366170	-1.768472	 14.568230	 3.515987	-9.633821	 12.922610	-16.438920	-34.731500	-6.580301	 5.266122	 0.000000	 0.000000	 0.000000	 0.000000	 0.000000	 0.000000	 0.000000	 8.078573	 35.464900	-2.734663	-3.660256	-25.605210	-2.212209	 125.301000	 7.470731	-95.091800	-13.746080	 22.937400	 9.831092	-58.402880	 8.343424	-11.017130	 25.926450	-20.974200	 50.806760	 15.208500	 5.323790	 0.000000	 0.000000	 0.000000	 0.000000	 0.000000	 0.000000	 0.000000
